<?xml version="1.0" encoding="iso-8859-1"?>
<!-- Generator: Adobe Illustrator 19.0.0, SVG Export Plug-In . SVG Version: 6.00 Build 0)  -->
<svg version="1.1" id="Capa_1" xmlns="http://www.w3.org/2000/svg" xmlns:xlink="http://www.w3.org/1999/xlink" x="0px" y="0px"
	 viewBox="0 0 490 490" style="enable-background:new 0 0 490 490;" xml:space="preserve">
<g>
	<path fill="#f6d86a" d="M489.526,383.23L398.894,52.525c-1.508-5.522-7.177-8.783-12.717-7.322l-20.635,5.456l-5.998-21.885
		c-5.637-20.59-27.348-33.204-48.095-27.328c-28.012,7.933-32.371,34.367-27.763,47.563l5.954,21.717l-42.564,11.254l-6-21.89
		c-5.637-20.59-27.348-33.203-48.095-27.328c-28.012,7.932-32.371,34.367-27.763,47.562l5.955,21.724l-42.646,11.275l-6.023-21.975
		c-5.637-20.59-27.348-33.203-48.095-27.329C46.396,71.95,42.038,98.385,46.646,111.58l5.979,21.81l-20.889,5.555
		c-3.944,1.399-6.781,4.876-7.362,9.018L0.041,421.306c-0.297,3.357,1.046,6.653,3.614,8.849c1.911,1.625,4.324,2.498,6.783,2.495
		c0.839-0.001,1.69-0.104,2.523-0.309l82.976-20.796l19.399,70.783c1.268,4.639,5.47,7.677,10.061,7.672
		c0.876-0.001,1.771-0.113,2.657-0.35l354.08-93.602C486.273,395.659,491.634,388.999,489.526,383.23z M316.775,21.587
		c9.843-2.546,20.033,3.091,22.659,12.683l5.952,21.718l-35.59,9.409L303.795,43.5C302.073,36.771,303.99,24.894,316.775,21.587z
		 M198.307,52.903c9.843-2.546,20.033,3.091,22.659,12.683l5.953,21.722l-35.59,9.41l-6.002-21.901
		C183.605,68.085,185.522,56.209,198.307,52.903z M79.735,84.16c9.843-2.546,20.033,3.091,22.659,12.683l5.977,21.808l-35.59,9.409
		l-6.026-21.987C65.034,99.342,66.95,87.466,79.735,84.16z M22.106,408.561l17.901-201.09l50.417,183.967L22.106,408.561z
		 M132.716,466.864L92.755,321.062L47.59,156.269l66.289-17.524l8.107,29.58l20.109-5.498l-8.061-29.41l98.393-26.012l8.13,29.663
		l20.109-5.497l-8.084-29.495l98.312-25.988l8.131,29.665l20.109-5.497l-8.085-29.497l10.463-2.767l85.129,310.603L132.716,466.864z
		"/>
	<polygon fill="#f6d86a" points="203.174,238.28 178.454,244.821 183.792,264.962 208.511,258.421 	"/>
	<polygon fill="#f6d86a" points="266.27,221.602 241.551,228.132 246.877,248.274 271.597,241.744 	"/>
	<polygon fill="#f6d86a" points="329.361,204.922 304.642,211.453 309.968,231.594 334.688,225.064 	"/>
	<polygon fill="#f6d86a" points="373.059,214.917 397.784,208.386 392.457,188.245 367.733,194.775 	"/>
	<polygon fill="#f6d86a" points="156.597,315.209 131.878,321.741 137.204,341.882 161.924,335.351 	"/>
	<polygon fill="#f6d86a" points="219.693,298.531 194.969,305.061 200.295,325.203 225.02,318.672 	"/>
	<polygon fill="#f6d86a" points="282.784,281.852 258.065,288.383 263.391,308.525 288.111,301.994 	"/>
	<polygon fill="#f6d86a" points="321.156,271.705 326.482,291.846 351.202,285.316 345.875,265.174 	"/>
	<polygon fill="#f6d86a" points="389.573,275.167 414.293,268.636 408.966,248.495 384.247,255.026 	"/>
	<polygon fill="#f6d86a" points="148.392,381.991 153.719,402.132 178.439,395.602 173.112,375.46 	"/>
	<polygon fill="#f6d86a" points="211.484,365.313 216.81,385.455 241.53,378.924 236.203,358.783 	"/>
	<polygon fill="#f6d86a" points="274.574,348.633 279.901,368.775 304.621,362.245 299.294,342.103 	"/>
</g>
<g>
</g>
<g>
</g>
<g>
</g>
<g>
</g>
<g>
</g>
<g>
</g>
<g>
</g>
<g>
</g>
<g>
</g>
<g>
</g>
<g>
</g>
<g>
</g>
<g>
</g>
<g>
</g>
<g>
</g>
</svg>
