<svg id="Camada_1" data-name="Camada 1" xmlns="http://www.w3.org/2000/svg" viewBox="0 0 722.91 98.82"><defs><style>.cls-1{fill:#fff;}</style></defs><title>republicalogo_white</title><path class="cls-1" d="M626.75,176.34c-5.67,0-11.15.2-16.61-.06-4.27-.21-5.52-1.7-6.71-6.54-9.71,13.13-31.78,9.46-34.12-7.26-6,9.82-14.44,14.86-25.47,15.19-10.69.33-20-2.86-27.47-11.35-4,6.1-8.94,10.5-16.39,11.36-6.83.77-11.92-2.25-16.18-10.14-3.91,6.45-9.74,9.62-17,10.13-7.68.54-13.31-2.53-16.3-10.37A20.2,20.2,0,0,1,438,176.89a21.24,21.24,0,0,1-14.31-1,4.93,4.93,0,0,0-3.26,0c-7.68,2.67-16.88,3.07-24.64-4.45v4.73H378.41v-62.8h-8.76V100.29h27.09v24.57c3.87-1.51,7.47-3.7,11.31-4.29,14-2.19,25.25,6.44,27.8,20.84a36.94,36.94,0,0,1-1.24,19.17c-.9,2.53.36,3.32,2.39,3.62a8.2,8.2,0,0,0,9.06-5.35,30.61,30.61,0,0,0,2-9.85c.24-11.36.11-22.74.1-34.11a10.14,10.14,0,0,0-.22-1.37h-6.43v-13.2h25.22v3.18q0,25.89,0,51.78c0,1.3,0,2.6.14,3.89.41,4.74,2.85,6.31,7.37,4.63,5.45-2,6.71-6.89,7.07-11.83.4-5.55.09-11.15.09-17.11h-6.53V121.62H500.1V156a17.19,17.19,0,0,0,0,2.69c.41,2.42.37,5.19,3.8,5.56,3.24.35,7.39-1.77,8.25-4.32a3.65,3.65,0,0,0-.22-2c-5.85-20.76,9.15-39.29,30.79-37.68a54.48,54.48,0,0,1,14.16,3.17c5.6,2,8.45,6.38,8.15,12.56-.11,2.17,0,4.34,0,6.73H549.68c-.13-.17-.34-.31-.35-.46-.55-6.14-6-8.59-13.05-5.88-5.53,2.12-8.34,8.65-6.71,15.58,2.12,9,10.27,13.91,19.67,11.91,5.74-1.22,10.46-4.24,14.94-7.81,6-4.78,11.86-9.95,19.57-11.71,4.92-1.13,10-1.51,15-2.16a24.12,24.12,0,0,1,3.18,0c.46-4.5-1.49-7-5.55-7.45-5.07-.57-9.64,1-14,3.26-1,.49-1.91,1-3.09,1.71-1.1-2.09-2.17-4.08-3.21-6.08s-2.06-4.07-3.18-6.29a33.11,33.11,0,0,1,16.5-6.53,54.59,54.59,0,0,1,16,.55c9.89,2,15.1,9.6,15.31,20.73.09,5,0,10,0,15,0,5.76,0,5.76,6,6ZM396,148.72a51.86,51.86,0,0,0,1.61,6.85c1.59,4.13,4.59,6.67,9.21,6.8a10.12,10.12,0,0,0,9.81-6.46,16.88,16.88,0,0,0-.43-14.43,9.46,9.46,0,0,0-9.35-5.68,9.26,9.26,0,0,0-8.89,5.89A52.8,52.8,0,0,0,396,148.72Zm206.27,4c-4.14-.3-7.95,0-11.37,2.13-2.73,1.71-3.51,4.38-2.24,6.9,1.19,2.35,4.11,3.15,7,1.93A11.35,11.35,0,0,0,602.27,152.76Z" transform="translate(-105.59 -100.04)"/><path class="cls-1" d="M105.59,162.47h8V114h-8V100.25c.79,0,1.65-.15,2.51-.15,11.67,0,23.35-.18,35,.08a46.63,46.63,0,0,1,13.22,1.94c7.88,2.55,12.48,8.48,13.58,16.66,1.26,9.28-1,17.45-9,23.25-.88.64-1.8,1.23-2.26,1.54,1.87,2.83,3.8,5.5,5.48,8.33s3,5.84,4.65,8.69c2.53,4.4,6.16,4.72,9.23.69a5,5,0,0,0,.48-3.73c-2.85-12-.87-22.62,8.63-31.07,10.06-9,32.34-9.67,40.75,5.23a30.26,30.26,0,0,1,3,20.47H196.6c.92,10.89,13.09,13.15,28,5.13,2.19,4.15,4.4,8.31,6.58,12.43-9.26,8.56-34,13.43-47.71-2.67-.71,1-1.4,1.87-2.07,2.79-8,11-22.79,10.5-29.84-1.14-2.52-4.16-4.53-8.64-6.74-13-3.1-6.12-4.57-6.87-11.73-5.76v12.42h7.61v13.84H105.59Zm27.32-47.69V135c4.29-.25,8.08-.18,11.77-.76,4.32-.67,6.52-4.08,6.61-9.28s-1.88-8.52-6.42-9.28C141.09,115,137.21,115.06,132.91,114.78Zm79.47,27.11c-.61-5.18-3-7.8-7-7.81-4.39,0-7.64,3-8.23,7.81Z" transform="translate(-105.59 -100.04)"/><path class="cls-1" d="M372.81,163.12v13.13c-1.12.07-2.26.18-3.4.19-4.09,0-8.18,0-12.27,0-6.68,0-8.21-1.45-9.05-8.86a20.48,20.48,0,0,1-17.29,10.08c-7.22.34-13.4-1.78-17.22-9-2.76,4.6-6.48,7.53-11.48,8.57s-9.72.45-13.8-2.84c-8.53,4.09-16.72,5.3-26.9-1.37v11.38H268v13.12H236.08V184.58h6.74V140.05c0-5.21,0-5.21-5.28-5.28-.59,0-1.18-.06-2-.1V121.75c6.65,0,13.29-.22,19.9.1,2.6.13,4.13,2.25,3.91,5.21a2.83,2.83,0,0,0,.92-.32,23.24,23.24,0,0,1,37.86,7.9c3.26,7.69,3.4,15.63,1.68,23.75-.34,1.63,0,4.73.72,5a8.15,8.15,0,0,0,6.07-.29c4.11-2.33,4.66-6.75,4.73-11,.16-9,.05-18,.06-26.94v-3.49h18.5v13.45q0,9.44,0,18.86c0,2.8.29,5.65,3.19,6.86a8,8,0,0,0,8.65-1.59c4-3.54,5.48-8.25,5.57-13.39.12-8,0-15.93,0-24.16h18.51v36.13c0,5.08,0,5.07,5.12,5.16C371.49,163,372,163.06,372.81,163.12Zm-90.42-13.23c-.15-1.95-.17-3.15-.36-4.32-.91-5.68-4.93-9.59-10-9.76-5.4-.18-9.77,3-10.65,8.77a27.38,27.38,0,0,0,.62,10.81c1.22,4.64,5.15,7,9.62,7a10.16,10.16,0,0,0,9.65-7.11A35.53,35.53,0,0,0,282.39,149.89Z" transform="translate(-105.59 -100.04)"/><path class="cls-1" d="M723.4,121.73c4.72,0,9-.28,13.21.09,2.9.26,4.42,2.54,4.61,5.45.11,1.66,0,3.33.25,5.15,4.19-7.58,10-12.38,19.27-11.9V138.4c-2.23.13-4.5.08-6.71.43-6.3,1-10.24,4.82-11.47,11a30.33,30.33,0,0,0-.56,4.75c-.09,2.67,0,5.35,0,8.37h7.6v13.31H716.29V163h7.05V151.38a21.66,21.66,0,0,1-13.47,8.31c-.69.13-1.41,1-1.79,1.73C701.64,173.47,691,178,678,177.62c-9.67-.25-18.15-3.79-24.15-11.77-12.35-16.44-3.44-40.1,17-44.65,13.26-2.94,25.29-.35,34.17,10.8,2.16,2.72,3.47,6.24,4.64,9.58.71,2,1.88,2.74,3.45,2,2.3-1,5.11-2.07,6.33-4a32.46,32.46,0,0,0,3.79-10.16C723.86,127.05,723.4,124.37,723.4,121.73Zm-31.25,27.36c0-7.58-5.49-13.6-12.49-13.65s-12.56,5.87-12.6,13.51,5.41,13.44,12.61,13.39S692.12,156.57,692.15,149.09Z" transform="translate(-105.59 -100.04)"/><path class="cls-1" d="M805.76,126.85c.19-3.46,2-5.16,5-5.24,5.86-.16,11.73,0,17.78,0v12.81c-.17.12-.33.31-.49.31-6.19.11-5.89-.21-5.87,6.27q0,14.66,0,29.31c0,15.3-7.61,24.75-22.56,27.75-9.57,1.92-18.82.5-27.73-3.36a16.29,16.29,0,0,1-1.49-.88c1.71-4.39,3.38-8.7,4.84-12.46,5.5.92,10.62,2.31,15.79,2.53,9.41.39,13.49-4.52,12.4-14.27-6.12,5.89-13.32,6.24-20.87,4.18-7.13-1.94-11.92-6.68-14.76-13.33a33.05,33.05,0,0,1-.68-24.78,22.35,22.35,0,0,1,11.49-13.14C785.37,119.16,798.3,118.44,805.76,126.85ZM783,147c1.11,2.91,1.8,6.08,3.43,8.66,2.37,3.73,7.48,4.78,11.77,3.12s6.23-6,5.95-12.58c-.23-5.51-2.53-9-6.68-10.17C789.41,133.76,783.65,138.23,783,147Z" transform="translate(-105.59 -100.04)"/><path class="cls-1" d="M332.37,121.27V108.15c5.12-.09,8.08-2.57,8.6-7.84H351.3C352.51,110.14,347.07,121.75,332.37,121.27Z" transform="translate(-105.59 -100.04)"/><path class="cls-1" d="M499.81,100.29v12.84H482.22V100.29Z" transform="translate(-105.59 -100.04)"/><path class="cls-1" d="M633,176.23V163.16h13v13.07Z" transform="translate(-105.59 -100.04)"/></svg>